<svg width="70" height="70" viewBox="0 0 70 70" fill="none" xmlns="http://www.w3.org/2000/svg">
<path d="M11.6667 23.3234C11.1883 23.3111 10.8409 23.2834 10.5286 23.2212C8.21461 22.761 6.40571 20.9521 5.94542 18.638C5.83333 18.0745 5.83333 17.3969 5.83333 16.0417C5.83333 14.6864 5.83333 14.0088 5.94542 13.4453C6.40571 11.1313 8.21461 9.32237 10.5286 8.86209C11.0921 8.75 11.7698 8.75 13.125 8.75H56.875C58.2302 8.75 58.9079 8.75 59.4714 8.86209C61.7854 9.32237 63.5943 11.1313 64.0546 13.4453C64.1667 14.0088 64.1667 14.6864 64.1667 16.0417C64.1667 17.3969 64.1667 18.0745 64.0546 18.638C63.5943 20.9521 61.7854 22.761 59.4714 23.2212C59.1591 23.2834 58.8117 23.3111 58.3333 23.3234M29.1667 37.9167H40.8333M11.6667 23.3333H58.3333V47.25C58.3333 52.1505 58.3333 54.6007 57.3796 56.4724C56.5407 58.1188 55.2022 59.4574 53.5557 60.2963C51.684 61.25 49.2338 61.25 44.3333 61.25H25.6667C20.7662 61.25 18.316 61.25 16.4442 60.2963C14.7978 59.4574 13.4593 58.1188 12.6204 56.4724C11.6667 54.6007 11.6667 52.1505 11.6667 47.25V23.3333Z" stroke-width="2" stroke-linecap="round" stroke-linejoin="round"/>
</svg>
