<svg width="70" height="70" viewBox="0 0 70 70" fill="none" xmlns="http://www.w3.org/2000/svg">
<path d="M35 61.25L34.7082 60.8123C32.6821 57.7732 31.6691 56.2537 30.3307 55.1536C29.1458 54.1798 27.7806 53.4491 26.313 53.0034C24.6553 52.5 22.8291 52.5 19.1766 52.5H15.1667C11.8997 52.5 10.2662 52.5 9.01839 51.8642C7.92078 51.3049 7.02839 50.4126 6.46913 49.3149C5.83333 48.0671 5.83333 46.4336 5.83333 43.1667V18.0833C5.83333 14.8164 5.83333 13.1829 6.46913 11.9351C7.02839 10.8374 7.92078 9.94506 9.01839 9.3858C10.2662 8.75 11.8997 8.75 15.1667 8.75H16.3333C22.8673 8.75 26.1343 8.75 28.6299 10.0216C30.8251 11.1401 32.6099 12.9249 33.7284 15.1201C35 17.6157 35 20.8827 35 27.4167M35 61.25V27.4167M35 61.25L35.2918 60.8123C37.3179 57.7732 38.3309 56.2537 39.6693 55.1536C40.8542 54.1798 42.2194 53.4491 43.687 53.0034C45.3447 52.5 47.1709 52.5 50.8234 52.5H54.8333C58.1003 52.5 59.7338 52.5 60.9816 51.8642C62.0792 51.3049 62.9716 50.4126 63.5309 49.3149C64.1667 48.0671 64.1667 46.4336 64.1667 43.1667V18.0833C64.1667 14.8164 64.1667 13.1829 63.5309 11.9351C62.9716 10.8374 62.0792 9.94506 60.9816 9.3858C59.7338 8.75 58.1003 8.75 54.8333 8.75H53.6667C47.1327 8.75 43.8657 8.75 41.3701 10.0216C39.1749 11.1401 37.3901 12.9249 36.2716 15.1201C35 17.6157 35 20.8827 35 27.4167" stroke="black" stroke-width="2" stroke-linecap="round" stroke-linejoin="round"/>
</svg>
