<svg width="70" height="70" viewBox="0 0 70 70" fill="none" xmlns="http://www.w3.org/2000/svg">
<path d="M23.3333 61.25V20.4167C23.3333 17.7043 23.3333 16.348 23.6315 15.2353C24.4406 12.2158 26.7991 9.85723 29.8186 9.04814C30.9313 8.75 32.2875 8.75 35 8.75C37.7125 8.75 39.0688 8.75 40.1815 9.04814C43.2008 9.85723 45.5595 12.2158 46.3686 15.2353C46.6667 16.348 46.6667 17.7043 46.6667 20.4167V61.25M15.1667 61.25H54.8333C58.1003 61.25 59.7339 61.25 60.9817 60.6142C62.0792 60.055 62.9717 59.1625 63.5308 58.065C64.1667 56.8173 64.1667 55.1836 64.1667 51.9167V29.75C64.1667 26.483 64.1667 24.8495 63.5308 23.6017C62.9717 22.5041 62.0792 21.6117 60.9817 21.0525C59.7339 20.4167 58.1003 20.4167 54.8333 20.4167H15.1667C11.8997 20.4167 10.2662 20.4167 9.0184 21.0525C7.92077 21.6117 7.02839 22.5041 6.46915 23.6017C5.83334 24.8495 5.83334 26.483 5.83334 29.75V51.9167C5.83334 55.1836 5.83334 56.8173 6.46915 58.065C7.02839 59.1625 7.92077 60.055 9.0184 60.6142C10.2662 61.25 11.8997 61.25 15.1667 61.25Z" stroke-width="2" stroke-linecap="round" stroke-linejoin="round"/>
</svg>
