<svg width="1662" height="1634" viewBox="0 0 1662 1634" xmlns="http://www.w3.org/2000/svg">
<path fill-rule="evenodd" clip-rule="evenodd" d="M831.684 0.828266C372.32 0.828266 0.971252 374.912 0.971252 837.717C0.971252 1207.66 238.908 1520.8 568.99 1631.63C610.257 1639.96 625.376 1613.63 625.376 1591.47C625.376 1572.07 624.014 1505.56 624.014 1436.27C392.929 1486.16 344.808 1336.51 344.808 1336.51C307.671 1239.52 252.646 1214.59 252.646 1214.59C177.013 1163.32 258.155 1163.32 258.155 1163.32C342.055 1168.87 386.076 1249.23 386.076 1249.23C460.333 1376.7 579.991 1340.68 628.13 1318.51C634.999 1264.47 657.019 1227.06 680.399 1206.28C496.092 1186.87 302.18 1114.83 302.18 793.363C302.18 701.922 335.167 627.102 387.436 568.919C379.19 548.131 350.301 462.216 395.701 347.223C395.701 347.223 465.843 325.047 623.997 433.124C691.708 414.799 761.538 405.478 831.684 405.407C901.823 405.407 973.33 415.114 1039.36 433.124C1197.53 325.047 1267.66 347.223 1267.66 347.223C1313.07 462.216 1284.15 548.131 1275.92 568.919C1329.56 627.102 1361.19 701.922 1361.19 793.363C1361.19 1114.83 1167.28 1185.48 981.596 1206.28C1011.86 1232.6 1037.97 1282.47 1037.97 1361.46C1037.97 1473.68 1036.61 1563.75 1036.61 1591.45C1036.61 1613.63 1051.74 1639.96 1092.99 1631.64C1423.09 1520.79 1661.02 1207.66 1661.02 837.717C1662.38 374.912 1289.68 0.828266 831.684 0.828266Z"/>
</svg>
